# xmcd
#
# Track frame offsets: 
#        150
#        13667
#        36775
#        49197
#        63355
#        86032
#        101847
#        118315
#        133712
#        150805
#        168885
#        188340
#        207270
#        227655
#        244120
#        256602
#        275382
#
# Disc length: 3906 seconds
#
# Revision: 0
# Processed by: cddbd v1.5.2PL0 Copyright (c) Steve Scherf et al.
# Submitted via: ExactAudioCopy v1.1
#
DISCID=d90f4011
DTITLE=陳潔靈 - Elisa
DYEAR=1986
DGENRE=Country
TTITLE0=再見 Sayonara
TTITLE1=誰令你心痴（合唱：張國榮）
TTITLE2=傾出我心事
TTITLE3=羊群伴我失眠
TTITLE4=每一次別離
TTITLE5=火熱舞
TTITLE6=但願
TTITLE7=Love Me
TTITLE8=無言地等
TTITLE9=只怕不再遇上（合唱：張國榮）
TTITLE10=自由的我
TTITLE11=Forever My Love
TTITLE12=當天那真我
TTITLE13=只要有你
TTITLE14=我是清風
TTITLE15=今晚夜（全新版本）
TTITLE16=千個太陽（合唱：葉德嫻、散芬芳合唱團）
EXTD=
EXTT0=
EXTT1=
EXTT2=
EXTT3=
EXTT4=
EXTT5=
EXTT6=
EXTT7=
EXTT8=
EXTT9=
EXTT10=
EXTT11=
EXTT12=
EXTT13=
EXTT14=
EXTT15=
EXTT16=
PLAYORDER=
